<svg version="1" xmlns="http://www.w3.org/2000/svg" width="1200" height="1200" viewBox="0 0 900.000000 900.000000"><path d="M0 450v450h900V0H0v450zm361.8-343.1c6.5 2.9 14.3 11.2 16.8 17.8 1.7 4.4 1.9 9.4 2.2 61l.3 56.3h137.8l.3-56.3c.3-51.7.5-56.6 2.2-61 2.5-6.6 10.3-14.9 16.8-17.8l5.3-2.4h45c43.9 0 45.1.1 49.6 2.1 9.8 4.6 16.4 13.1 18.8 24.2.7 3.5 1.1 22.9 1.1 58.2v53h53c35.3 0 54.7.4 58.2 1.1 11.1 2.4 19.6 9 24.2 18.8 2 4.5 2.1 5.7 2.1 49.6 0 44.9 0 45-2.3 50.1-4.2 9.3-13.5 16.4-24.1 18.4-3.2.6-26.6 1-58.2 1H658v137.9l56.3.3c51.6.3 56.6.5 61 2.2 6.6 2.5 14.9 10.3 17.8 16.8l2.4 5.3v45c0 43.9-.1 45.1-2.1 49.6-4.6 9.8-13.1 16.4-24.2 18.8-3.5.7-22.9 1.1-58.2 1.1h-53v52.3c0 33.5-.4 54.5-1.1 58.2-2.1 11.5-8.7 20.2-18.8 24.9-4.5 2-5.7 2.1-49.6 2.1h-45l-5.3-2.4c-6.5-2.9-14.3-11.2-16.8-17.8-1.7-4.4-1.9-9.4-2.2-61.1l-.3-56.2H381.1l-.3 56.2-.3 56.3-2.9 6.2c-3.5 7.6-10.2 14.2-17.1 16.9-4.7 1.8-8 1.9-49.5 1.9-43.5 0-44.6 0-49.2-2.2-7-3.2-13.1-9.4-16.4-16.6l-2.9-6.2-.3-56.3-.3-56.2H189c-35.4 0-54.7-.4-58.2-1.1-11.1-2.4-19.6-9-24.2-18.8-2-4.5-2.1-5.7-2.1-49.6v-45l2.4-5.3c2.9-6.5 11.2-14.3 17.8-16.8 4.4-1.7 9.4-1.9 61.1-2.2l56.2-.3V381.1l-56.2-.3c-51.7-.3-56.7-.5-61.1-2.2-6.6-2.5-14.9-10.3-17.8-16.8l-2.4-5.3v-45c0-44 0-45.1 2.2-49.7 3.2-7 9.4-13.1 16.6-16.4l6.2-2.9 56.2-.3 56.2-.3.3-56.2c.3-53.4.4-56.4 2.3-61.1 2.4-5.7 8.1-12.6 13.2-15.7 7.4-4.6 10.2-4.8 55.8-4.6 42.9.2 43 .2 48.3 2.6z"/><path d="M381 450v69h138V381H381v69z"/></svg>